<svg width="693" height="616" xmlns="http://www.w3.org/2000/svg" data-name="Layer 1">

 <g>
  <title>Layer 1</title>
  <path stroke="null" id="svg_1" fill="#3f3d56" d="m676.78398,257.75c-11.93632,96.32 -74.30607,181.71 -154.14899,237.23q-9.71951,6.765 -19.92061,12.98c-0.85259,0.52 -1.70519,1.04 -2.55778,1.55c-47.44435,28.38 -101.79972,46.56 -156.40586,40.89c-44.36498,-4.6 -87.92752,-28.13 -113.92662,-63.28c-0.4915,-0.66 -0.98299,-1.34 -1.45443,-2.01a121.79865,121.42808 0 0 1 -21.02396,-49.22c-4.67422,-26.29 -1.04317,-55.36 -15.56736,-77.79c-18.83731,-29.1 -59.18005,-33.84 -93.89568,-32.75c-32.44872,1.01 -64.8473,4.51 -97.2559,6.33c-0.66201,0.04 -1.33406,0.07 -2.0061,0.11l0,-309.1a22.7867,22.71737 0 0 1 22.75924,-22.69l141.15947,0c6.83078,0.89 11.66549,14.55 18.47626,15q4.42346,0.3 8.83689,0.48c15.47709,0.64 30.93412,0.37 46.37108,-0.48c9.01744,-0.49 20.04097,-14.18 29.04838,-15l260.65298,0c1.94592,0.64 3.87178,1.31 5.79764,2a215.41281,214.75742 0 0 1 24.27385,10.44c86.82416,43.89 132.72381,148.99 120.78749,245.31z"/>
  <path id="svg_2" fill="#6c63ff" d="m567.39,129.14c-40.29,37.5 -93.66,61.56 -148.48,67.33q-8.06991,0.855 -16.18,1.17c-1.19995,0.05 -2.4,0.08 -3.61,0.11c-1.96,0.05 -3.93,0.07 -5.89,0.07q-3.525,0 -7.05,-0.1a255.88354,255.88354 0 0 1 -40.52,-4.43c-0.49,-0.1 -0.97,-0.19 -1.46,-0.29q-3.165,-0.615 -6.31,-1.32q-6.03,-1.335 -12,-2.96c-1.29,-0.35 -2.58,-0.71 -3.87,-1.09c-1.85,-0.53 -3.69,-1.09 -5.53,-1.66c-0.69,-0.22 -1.38,-0.43 -2.07,-0.66q-1.05,-0.33 -2.1,-0.69q-6.405,-2.1 -12.7,-4.56a255.24182,255.24182 0 0 1 -66.37,-37.91c-2.78,-2.21 -5.6,-4.53 -8.32,-6.78c-14.62,-12.06 -29.74,-24.53 -48.17,-27.25c-19.9,-2.93 -39.02,6.13 -57.5,14.89c-6.27,2.97 -12.75,6.04 -19.16,8.61a152.67089,152.67089 0 0 1 -98.1,4.69c-0.67,-0.18 -1.34,-0.38 -2,-0.58l0,-2.09c0.66,0.2 1.33,0.4 2,0.59a150.75325,150.75325 0 0 0 97.36,-4.47c6.35,-2.54 12.81,-5.6 19.05,-8.56c18.75,-8.89 38.14,-18.08 58.64,-15.06c18.98,2.8 34.32,15.45 49.15,27.69c2.72,2.24 5.53,4.56 8.29,6.76a253.09188,253.09188 0 0 0 65.94,37.65l0.01,0c4.02,1.56 8.09,3.03 12.18,4.39c0.59,0.19 1.18,0.38 1.77,0.58c0.66,0.21 1.33,0.42 1.99,0.63q2.535,0.81 5.08,1.54q2.49,0.75 5.01,1.42l0.01,0q6.45008,1.755 12.98,3.17c1.97,0.44 3.94,0.84 5.93,1.22c0.43,0.09 0.87,0.17 1.31,0.25a252.999,252.999 0 0 0 38.86,4.26l0.01,0q6.795,0.20994 13.57,0.05c1.18,-0.03 2.35,-0.07 3.52,-0.11q7.66508,-0.3 15.31,-1.08l0.01,0c54.65,-5.59 107.89,-29.51 148.05005,-66.89a1.00132,1.00132 0 0 1 1.36,1.47l-0.00005,0z"/>
  <path id="svg_3" fill="#ff6584" d="m0.31,90.94a2.30973,2.30973 0 0 1 -0.31,0.72l0,-2.79a2.819,2.819 0 0 1 0.31,2.07z"/>
  <ellipse id="svg_4" transform="rotate(-83.6243 -264.646 332.098)" fill="#e6e6e6" ry="2.27591" rx="3.27161" cy="575.37747" cx="-5.20662"/>
  <ellipse id="svg_5" transform="rotate(-83.6243 -283.248 353.717)" fill="#3f3d56" ry="2.27591" rx="3.27161" cy="618.20377" cx="-21.02648"/>
  <ellipse id="svg_6" transform="rotate(-75.7793 -104.484 914.679)" fill="#fff" ry="5.17661" rx="3.60114" cy="1347.27301" cx="648.95828"/>
  <ellipse id="svg_7" transform="rotate(-75.7793 -129.802 881.708)" fill="#3f3d56" ry="5.17661" rx="3.60114" cy="1314.08372" cx="589.79643"/>
  <ellipse id="svg_8" transform="rotate(-75.7793 -126.911 942.016)" fill="#ff6584" ry="5.17661" rx="3.60114" cy="1402.68862" cx="632.88205"/>
  <ellipse id="svg_9" transform="rotate(-83.6243 -37.9742 1043.51)" fill="#e6e6e6" ry="2.27591" rx="3.27161" cy="1515.78719" cx="732.46471"/>
  <ellipse id="svg_10" transform="rotate(-83.6243 -56.577 1065.13)" fill="#3f3d56" ry="2.27591" rx="3.27161" cy="1558.61356" cx="716.64484"/>
  <ellipse id="svg_11" transform="rotate(-83.6243 -47.1691 994.812)" fill="#e6e6e6" ry="2.27591" rx="3.27161" cy="1447.88349" cx="691.45249"/>
  <ellipse id="svg_12" transform="rotate(-83.6243 -25.6698 1006.05)" fill="#ff6584" ry="2.27591" rx="3.27161" cy="1452.7235" cx="729.98346"/>
  <ellipse id="svg_13" transform="rotate(-83.6243 -27.1425 969.831)" fill="#3f3d56" ry="2.27591" rx="3.27161" cy="1399.21757" cx="707.52846"/>
  <ellipse id="svg_14" transform="rotate(-75.7793 -217.973 294.842)" fill="#fff" ry="5.17661" rx="3.60114" cy="490.43647" cx="80.46989"/>
  <ellipse id="svg_15" transform="rotate(-75.7793 -243.291 261.871)" fill="#3f3d56" ry="5.17661" rx="3.60114" cy="457.24721" cx="21.30804"/>
  <ellipse id="svg_16" transform="rotate(-75.7793 -240.4 322.179)" fill="#ff6584" ry="5.17661" rx="3.60114" cy="545.85207" cx="64.39366"/>
  <ellipse id="svg_17" transform="rotate(-83.6243 -206.914 380.64)" fill="#e6e6e6" ry="2.27591" rx="3.27161" cy="615.91949" cx="108.52527"/>
  <ellipse id="svg_18" transform="rotate(-83.6243 -225.516 402.259)" fill="#3f3d56" ry="2.27591" rx="3.27161" cy="658.7458" cx="92.70541"/>
  <ellipse id="svg_19" transform="rotate(-83.6243 -216.109 331.945)" fill="#e6e6e6" ry="2.27591" rx="3.27161" cy="548.01572" cx="67.51304"/>
  <ellipse id="svg_20" transform="rotate(-83.6243 -194.609 343.183)" fill="#ff6584" ry="2.27591" rx="3.27161" cy="552.85573" cx="106.04402"/>
  <ellipse id="svg_21" transform="rotate(-83.6243 -196.082 306.964)" fill="#3f3d56" ry="2.27591" rx="3.27161" cy="499.34977" cx="83.58903"/>
  <circle id="svg_22" fill="#fff" r="4" cy="194.09532" cx="158.3728"/>
  <circle id="svg_23" fill="#fff" r="2" cy="234.09532" cx="60.3728"/>
  <circle id="svg_24" fill="#fff" r="2" cy="383.09532" cx="457.3728"/>
  <circle id="svg_25" fill="#fff" r="2" cy="291.09532" cx="199.3728"/>
  <circle id="svg_26" fill="#fff" r="2" cy="82.09532" cx="235.3728"/>
  <circle id="svg_27" fill="#fff" r="2" cy="159.09532" cx="562.3728"/>
  <circle id="svg_28" fill="#fff" r="2" cy="55.09532" cx="97.3728"/>
  <circle id="svg_29" fill="#fff" r="4" cy="43.09532" cx="461.3728"/>
  <circle id="svg_33" fill="#f2f2f2" r="40" cy="94.09532" cx="360.3728"/>
  <circle id="svg_34" fill="#f2f2f2" r="40" cy="97.09532" cx="354.3728"/>
  <path id="svg_35" fill="#f2f2f2" d="m398.3722,535.04048l-37.4922,-0.00143l0,-0.47405a14.59383,14.59383 0 0 1 14.593,-14.5928l0.00091,0l6.84841,-5.19554l12.77768,5.19634l3.27284,0.00007l-0.00064,15.06741z"/>
  <path id="svg_36" fill="#f2f2f2" d="m380.91905,514.791l-32.03268,19.48267l-0.24638,-0.40506a14.59381,14.59381 0 0 1 4.88417,-20.0512l0.00077,-0.00047l3.151,-7.99784l13.61718,-2.20069l2.79623,-1.70076l7.82971,12.87335z"/>
  <path id="svg_37" fill="#f2f2f2" d="m402.94281,408.56529c-0.17,1.19995 -0.42,5.28 -0.71,11.22c-1.41,28.80005 -3.86,101.31006 -3.86,101.31006l-15.27,-4.75s-18.16,-54.78 -15.16,-84.78l-2.16,-10.43994l-3.7,-17.84009l0,-0.01l-11.27,-54.33s-2.47,14.7201 -2.67,18.17005s-2.2,4.45 -3.2,4.45c-5.01,0 -3.47,-0.89 -2.74,4.06006c0.53,3.55993 -3.81,23.97 -6.29,35.12988c-0.96,4.34009 -1.64,7.28 -1.64,7.28l4.24,9.14l35.15,75.80005l-13.29,7.12l-53.02,-78.58008l-5.23,-7.75l-1.12,-8.68994l-8.82,-68.37s-2.75,-7.73 0,-7.93c2.76,-0.21 4.32,0.66 3.54,-2.27c-0.78,-2.93994 15.22,-51.93994 15.22,-51.93994l83,18s8.18,16.26 5,24c-3.19,7.74 2.61,67.67993 -0.7,70.34009c-3.3,2.65991 -5.43,0.5299 -0.87,5.09985a8.38635,8.38635 0 0 0 2.43,1.76c2.81999,1.27993 3.93999,-0.80003 3.14,4.79995z"/>
  <circle id="svg_38" fill="#a0616a" r="23.0557" cy="98.95991" cx="354.11277"/>
  <path id="svg_39" fill="#3f3d56" d="m372.07956,118.81621l-9.14,1.75s8.5,-13.72 8,-20c-0.5,-6.28 -7.34,-8.53 -7.34,-8.53s-3.79,0.82 -7.78,1.28a20.0611,20.0611 0 0 0 -1.85,-3.85a6.71583,6.71583 0 0 1 -1.96,4.14a10.93526,10.93526 0 0 1 -4.33,-0.5c-1.58,-0.72 -1.55,-1.97 -1.03,-3.14a41.62375,41.62375 0 0 0 -14.82,4.07a40.8988,40.8988 0 0 1 0.35,-9.2c0.22,-0.06 0.44,-0.12994 0.66,-0.2a20.41435,20.41435 0 0 0 3.92,-1.71a6.75155,6.75155 0 0 1 -3.7,-1.74c0.84,-2.46 2.18,-4.59 4.29,-5.63a15.81547,15.81547 0 0 1 13.13,-0.35s-4.88995,-3.57 -3.09,-5.03c0.12,0.12 0.24,0.23 0.37,0.34c0.17,0.13995 0.36,0.29 0.54,0.43c1.11,0.9 2.77,-0.37 2.99,-1.73a4.5857,4.5857 0 0 1 0.1,-0.51c0.03,-0.14 0.07,-0.28 0.11,-0.41a3.39441,3.39441 0 0 1 0.12,-0.34c3.33,-0.8 13.4,2.45 17.27,9.61c0,0 27.04998,13 3.19,41.25z"/>
  <path id="svg_40" fill="#6c63ff" d="m363.72778,324.37631a8.93378,8.93378 0 0 1 7.32068,-10.08344a8.57117,8.57117 0 0 1 1.41312,-0.10276l24.107,-55.98179l16.53742,12.41592l-32.19849,53.034a8.909,8.909 0 0 1 -7.366,8.00259a8.52587,8.52587 0 0 1 -9.77952,-7.05282q-0.01866,-0.11563 -0.03421,-0.2317z"/>
  <path id="svg_41" fill="#6c63ff" d="m296.19686,328.93952a8.93377,8.93377 0 0 0 -0.00564,-12.46067a8.57057,8.57057 0 0 0 -1.08356,-0.91287l13.3547,-59.47066l-20.67673,0.34075l-5.07394,61.83525a8.909,8.909 0 0 0 1.264,10.80284a8.52588,8.52588 0 0 0 12.05738,0.03276q0.08305,-0.08257 0.16379,-0.1674z"/>
  <path id="svg_42" fill="#f2f2f2" d="m429.44281,229.3853c-3,4 -7,-0.51 -3,5.25c2.75,3.96 -13.01,41.08 -23.1,63.82c-4.56,10.28992 -7.97,17.64 -7.97,17.64l-17.01,-9.8501l-1.99,-1.1499s15.6,-39.26 20.62,-53.37c0.83,-2.34 1.38,-3.99 1.51,-4.65c0.94,-4.69 1.06,-8.71 0,-10.2a13.90473,13.90473 0 0 1 -0.64,-1.71c-2.01,-5.89 -8.13,-25.78 -13.86,-44.59c-1.67,-5.52 -3.32,-10.94 -4.82,-15.89c-3.85,-12.71 -6.74,-22.3 -6.74,-22.3l23,1s0.38,0.64 1.05,1.8c1.6,2.76 4.88,8.45 8.68,15.29c2.74,4.92 5.76,10.45 8.61005,15.89c7.26,13.84 13.51,27.17 11.66,29.02c-4,4 -8.09,1.73 -3.05,6.86c5.04995,5.14 10.04995,3.14 7.04995,7.14z"/>
  <path id="svg_43" fill="#f2f2f2" d="m401.93958,282.56626c-6,-5.94006 -4.89,-33.01007 -4.89,-33.01007s5.97,-90.9 -2.11,-96.99a112.67431,112.67431 0 0 0 -17.76,-10.49c-0.36,-0.16 -0.55,-0.25 -0.55,-0.25l-5.16,-14.55l-31.79,-1.65l-5.55,10.78s-0.87,0.06 -2.23,0.25c-5.08,0.7 -17.02,3.18 -15.96,10.91c1.34,9.8 -8.12,69.99 -11,73s-2.12,14.01 5,21s2,26 -3,34a27.3848,27.3848 0 0 0 -3.96,16.33991s3.96,21.66015 13.96,14.66015c3.81,-2.67016 9.22,-3.01 15.73,-2.52c0.06347,0.00463 0.13226,0.01293 0.196,0.01782l-0.196,0.98218c9.04,0.66992 20.21,2.93994 32.16,2.80993l-0.35388,-1.00452c0.11883,-0.00073 0.23486,0.00586 0.35388,0.00452c2.02,-0.02 4.05,-0.11 6.11,-0.28992c17.82,-1.55 25.69,3.34986 28,-2c2.30999,-5.35009 9,-16.06005 3,-22z"/>
  <circle id="svg_44" opacity="0.3" fill="#6c63ff" r="30" cy="97.09532" cx="354.3728"/>
  <path id="svg_45" fill="#f2f2f2" d="m339.94281,142.3853s-4.56,15.14 -9.87,32.61c-1.67,5.5 -3.42,11.23 -5.12,16.80005c-5.55,18.11 -10.61,34.43 -11.08,35.08c-1.06,1.49 -0.93,5.51 0,10.2c0.19,0.94 -0.24,4.6 -1.05,9.85c-1.06,6.89 -2.77,16.51 -4.59,26.33c-1.45,7.85 -2.97,15.82 -4.28,22.61005c-2.05,10.54 -3.58,18.23 -3.58,18.23l-19,0s3.57,-79.71 7.57,-85.46c4,-5.76 0,-1.25 -3,-5.25s2,-2 7.04,-7.14c5.04,-5.13 0.96,-2.86 -3.04,-6.86c-1.48,-1.48 1.83,-10.91 6.59,-22.2c2.22,-5.24 4.75,-10.88995 7.25,-16.32995c5.17,-11.23 10.24,-21.56 12.25,-25.64c0,-0.01 0.01,-0.02 0.01,-0.03l0.9,-1.8l23,-1.00015z"/>
  <path id="svg_46" fill="#3f3d56" d="m381.3728,146.09532c-20.879,8.1098 -39.65112,9.50775 -55,0l0,-18c18.07686,10.84643 36.41721,10.54986 55,0l0,18z"/>
  <path id="svg_47" fill="#3f3d56" d="m397.3728,261.09532c-32.26747,8.1098 -61.279,9.50775 -85,0l0,-18c27.937,10.84643 56.28114,10.54986 85,0l0,18z"/>
  <path id="svg_48" fill="#3f3d56" d="m402.94281,408.56529c-0.17,1.19995 -0.42,5.28 -0.71,11.22a147.5843,147.5843 0 0 1 -36.45,1.34009l-3.7,-17.84009a112.88652,112.88652 0 0 0 37.72,0.48c2.81999,1.27998 3.93999,-0.79998 3.14,4.8z"/>
  <path id="svg_49" fill="#3f3d56" d="m338.51282,427.17527a195.43337,195.43337 0 0 1 -31.16,4.34l-5.23,-7.75l-1.12,-8.68994a118.57174,118.57174 0 0 0 34.91,-4.32007c-0.96,4.34009 -1.64,7.28 -1.64,7.28l4.24,9.14001z"/>
  <path id="svg_50" fill="#6c63ff" d="m341.3728,184.09532a10,10 0 0 1 -20,0c0,-5.52285 9,-17 10,-10s10,4.47715 10,10z"/>
  <path id="svg_51" fill="#6c63ff" d="m332.46,167.14c-0.36,-0.03 -0.72,-0.04 -1.09,-0.04a17.02576,17.02576 0 0 0 -16.98,16.11c-0.01,0.29 -0.02,0.59 -0.02,0.89c0,0.41 0.01,0.81 0.05,1.21a16.98729,16.98729 0 0 0 31.24,7.98a15.94718,15.94718 0 0 0 1.04,-1.85a16.989,16.989 0 0 0 -14.24,-24.3zm11.74,25.86a16.91771,16.91771 0 0 1 -12.83,6.1a15.02174,15.02174 0 0 1 -14.88,-13.13a14.4398,14.4398 0 0 1 -0.12,-1.87a2.26081,2.26081 0 0 1 0.01,-0.26a15.00184,15.00184 0 0 1 14.99,-14.74c0.09,0.24 0.18,0.47 0.28,0.69c4.27,10.1 13.53,9.34 14.72,14.31a9.8314,9.8314 0 0 1 -0.98,7.09a11.52084,11.52084 0 0 1 -1.19,1.81z"/>
 </g>
</svg>